<svg xmlns="http://www.w3.org/2000/svg" width="11.171" height="11.021" viewBox="0 0 11.171 11.021">
  <g id="internet" transform="translate(0 -3.438)">
    <g id="Group_2611" data-name="Group 2611" transform="translate(5.914 9.306)">
      <g id="Group_2610" data-name="Group 2610">
        <path id="Path_3476" data-name="Path 3476" d="M271.026,272.392v1.951a6.076,6.076,0,0,1,1.8.354,7.265,7.265,0,0,0,.493-2.305h-2.293Z" transform="translate(-271.026 -272.392)" fill="#b5b5b5"/>
      </g>
    </g>
    <g id="Group_2613" data-name="Group 2613" transform="translate(5.914 11.914)">
      <g id="Group_2612" data-name="Group 2612">
        <path id="Path_3477" data-name="Path 3477" d="M271.026,391.9v2.44a7.824,7.824,0,0,0,1.068-1.317,7.957,7.957,0,0,0,.468-.826A5.376,5.376,0,0,0,271.026,391.9Z" transform="translate(-271.026 -391.902)" fill="#b5b5b5"/>
      </g>
    </g>
    <g id="Group_2615" data-name="Group 2615" transform="translate(5.914 3.907)">
      <g id="Group_2614" data-name="Group 2614" transform="translate(0 0)">
        <path id="Path_3478" data-name="Path 3478" d="M271.927,25.953a8.319,8.319,0,0,0-.9-1.028v2.136a5.417,5.417,0,0,0,1.446-.266A7.932,7.932,0,0,0,271.927,25.953Z" transform="translate(-271.027 -24.925)" fill="#b5b5b5"/>
      </g>
    </g>
    <g id="Group_2617" data-name="Group 2617" transform="translate(5.914 6.366)">
      <g id="Group_2616" data-name="Group 2616">
        <path id="Path_3479" data-name="Path 3479" d="M272.767,137.652a6.094,6.094,0,0,1-1.741.333v1.951h2.292A6.4,6.4,0,0,0,272.767,137.652Z" transform="translate(-271.026 -137.652)" fill="#b5b5b5"/>
      </g>
    </g>
    <g id="Group_2619" data-name="Group 2619" transform="translate(3.722 11.914)">
      <g id="Group_2618" data-name="Group 2618">
        <path id="Path_3480" data-name="Path 3480" d="M170.607,392.2a8.046,8.046,0,0,0,1.535,2.144V391.9A5.377,5.377,0,0,0,170.607,392.2Z" transform="translate(-170.607 -391.902)" fill="#b5b5b5"/>
      </g>
    </g>
    <g id="Group_2621" data-name="Group 2621" transform="translate(3.812 3.907)">
      <g id="Group_2620" data-name="Group 2620" transform="translate(0 0)">
        <path id="Path_3481" data-name="Path 3481" d="M175.255,25.953a7.926,7.926,0,0,0-.546.843,5.416,5.416,0,0,0,1.446.266V24.925A8.319,8.319,0,0,0,175.255,25.953Z" transform="translate(-174.709 -24.925)" fill="#b5b5b5"/>
      </g>
    </g>
    <g id="Group_2623" data-name="Group 2623" transform="translate(2.965 9.306)">
      <g id="Group_2622" data-name="Group 2622">
        <path id="Path_3482" data-name="Path 3482" d="M135.888,272.393a7.214,7.214,0,0,0,.494,2.305,6.075,6.075,0,0,1,1.8-.354v-1.951h-2.293Z" transform="translate(-135.888 -272.393)" fill="#b5b5b5"/>
      </g>
    </g>
    <g id="Group_2625" data-name="Group 2625" transform="translate(2.966 6.366)">
      <g id="Group_2624" data-name="Group 2624">
        <path id="Path_3483" data-name="Path 3483" d="M136.491,137.652a6.4,6.4,0,0,0-.551,2.284h2.292v-1.951A6.094,6.094,0,0,1,136.491,137.652Z" transform="translate(-135.94 -137.652)" fill="#b5b5b5"/>
      </g>
    </g>
    <g id="Group_2627" data-name="Group 2627" transform="translate(0 5.111)">
      <g id="Group_2626" data-name="Group 2626">
        <path id="Path_3484" data-name="Path 3484" d="M2.412,80.826a4.514,4.514,0,0,1-.869-.719A5.552,5.552,0,0,0,0,83.647H2.31a7.153,7.153,0,0,1,.606-2.537A5.12,5.12,0,0,1,2.412,80.826Z" transform="translate(0 -80.107)" fill="#b5b5b5"/>
      </g>
    </g>
    <g id="Group_2629" data-name="Group 2629" transform="translate(8.315 9.306)">
      <g id="Group_2628" data-name="Group 2628">
        <path id="Path_3485" data-name="Path 3485" d="M381.629,272.394h0a7.915,7.915,0,0,1-.548,2.566,5.077,5.077,0,0,1,.445.255,4.514,4.514,0,0,1,.869.719,5.552,5.552,0,0,0,1.542-3.54Z" transform="translate(-381.081 -272.394)" fill="#b5b5b5"/>
      </g>
    </g>
    <g id="Group_2631" data-name="Group 2631" transform="translate(6.72 12.473)">
      <g id="Group_2630" data-name="Group 2630">
        <path id="Path_3486" data-name="Path 3486" d="M309.63,417.732q-.16-.1-.327-.188a8.607,8.607,0,0,1-.533.941,8.757,8.757,0,0,1-.8,1.045,5.539,5.539,0,0,0,2.429-1.166A3.887,3.887,0,0,0,309.63,417.732Z" transform="translate(-307.971 -417.544)" fill="#b5b5b5"/>
      </g>
    </g>
    <g id="Group_2633" data-name="Group 2633" transform="translate(8.255 5.111)">
      <g id="Group_2632" data-name="Group 2632">
        <path id="Path_3487" data-name="Path 3487" d="M379.724,80.109a4.516,4.516,0,0,1-.869.719,5.116,5.116,0,0,1-.5.284,7.153,7.153,0,0,1,.606,2.537h2.31A5.551,5.551,0,0,0,379.724,80.109Z" transform="translate(-378.35 -80.109)" fill="#b5b5b5"/>
      </g>
    </g>
    <g id="Group_2635" data-name="Group 2635" transform="translate(0 9.306)">
      <g id="Group_2634" data-name="Group 2634">
        <path id="Path_3488" data-name="Path 3488" d="M2.309,272.392H0a5.551,5.551,0,0,0,1.542,3.54,4.515,4.515,0,0,1,.869-.719,5.093,5.093,0,0,1,.445-.255A7.915,7.915,0,0,1,2.309,272.392Z" transform="translate(0 -272.392)" fill="#b5b5b5"/>
      </g>
    </g>
    <g id="Group_2637" data-name="Group 2637" transform="translate(2.022 3.438)">
      <g id="Group_2636" data-name="Group 2636" transform="translate(0 0)">
        <path id="Path_3489" data-name="Path 3489" d="M92.683,4.665a3.885,3.885,0,0,0,.771.631,4.611,4.611,0,0,0,.411.231,8.378,8.378,0,0,1,.64-1,8.979,8.979,0,0,1,.954-1.088A5.54,5.54,0,0,0,92.683,4.665Z" transform="translate(-92.683 -3.439)" fill="#b5b5b5"/>
      </g>
    </g>
    <g id="Group_2639" data-name="Group 2639" transform="translate(6.373 3.438)">
      <g id="Group_2638" data-name="Group 2638" transform="translate(0 0)">
        <path id="Path_3490" data-name="Path 3490" d="M292.092,3.438a8.977,8.977,0,0,1,.954,1.088,8.375,8.375,0,0,1,.64,1A4.6,4.6,0,0,0,294.1,5.3a3.883,3.883,0,0,0,.771-.631A5.54,5.54,0,0,0,292.092,3.438Z" transform="translate(-292.092 -3.438)" fill="#b5b5b5"/>
      </g>
    </g>
    <g id="Group_2641" data-name="Group 2641" transform="translate(2.022 12.473)">
      <g id="Group_2640" data-name="Group 2640">
        <path id="Path_3491" data-name="Path 3491" d="M94.314,418.485a8.606,8.606,0,0,1-.533-.941q-.167.088-.327.188a3.886,3.886,0,0,0-.771.631,5.539,5.539,0,0,0,2.429,1.166A8.76,8.76,0,0,1,94.314,418.485Z" transform="translate(-92.683 -417.544)" fill="#b5b5b5"/>
      </g>
    </g>
  </g>
</svg>
