<svg xmlns="http://www.w3.org/2000/svg" width="94" height="39"><g data-name="Group 2526"><text transform="translate(0 31)" fill="#fff" font-size="30" font-family="Roboto-Bold, Roboto" font-weight="700"><tspan x="0" y="0">EPIC</tspan></text><g data-name="six (2)"><g data-name="Group 2471"><g data-name="Group 2470" fill="#fff"><path data-name="Path 3388" d="M91.832 24.992H94V8.733a1.084 1.084 0 00-1.084-1.084H76.657v2.167h15.175z"/><path data-name="Path 3389" d="M73.405 29.328H88.58a1.084 1.084 0 001.084-1.084V13.069a1.084 1.084 0 00-1.084-1.084H73.405a1.084 1.084 0 00-1.084 1.084v15.175a1.084 1.084 0 001.084 1.084zm4.336-5.42h4.336v-2.167h-3.252a1.084 1.084 0 01-1.084-1.084v-4.336a1.084 1.084 0 011.084-1.084h4.336a1.084 1.084 0 011.084 1.084v8.672a1.084 1.084 0 01-1.084 1.084h-5.42z"/><path data-name="Rectangle 681" d="M79.909 17.406h2.168v2.168h-2.168z"/></g></g></g></g></svg>