<svg xmlns="http://www.w3.org/2000/svg" width="94" height="39"><defs><linearGradient id="a" x1=".5" x2=".5" y2="1" gradientUnits="objectBoundingBox"><stop offset="0" stop-color="#4097d9"/><stop offset=".64" stop-color="#30c4a0"/><stop offset="1" stop-color="#00b94f"/></linearGradient></defs><g data-name="Group 2526"><text transform="translate(0 31)" fill="#3d9cd1" font-size="30" font-family="Roboto-Bold, Roboto" font-weight="700"><tspan x="0" y="0">EPIC</tspan></text><g data-name="six (2)"><g data-name="Group 2471"><g data-name="Group 2470" transform="translate(72.321 7.649)" fill="url(#a)"><path data-name="Path 3388" d="M19.511 17.343h2.168V1.084A1.084 1.084 0 0020.595 0H4.336v2.167h15.175z"/><path data-name="Path 3389" d="M1.084 21.679h15.175a1.084 1.084 0 001.084-1.084V5.42a1.084 1.084 0 00-1.084-1.084H1.084A1.084 1.084 0 000 5.42v15.175a1.084 1.084 0 001.084 1.084zm4.336-5.42h4.336v-2.167H6.504a1.084 1.084 0 01-1.084-1.084V8.672a1.084 1.084 0 011.084-1.084h4.336a1.084 1.084 0 011.084 1.084v8.672a1.084 1.084 0 01-1.084 1.084H5.42z"/><path data-name="Rectangle 681" d="M7.588 9.757h2.168v2.168H7.588z"/></g></g></g></g></svg>