<svg xmlns="http://www.w3.org/2000/svg" width="17.5" height="17.5" viewBox="0 0 17.5 17.5">
  <g id="refresh" transform="translate(0)">
    <g id="Group_2585" data-name="Group 2585" transform="translate(0 0)">
      <g id="Group_2584" data-name="Group 2584">
        <path id="Path_3464" data-name="Path 3464" d="M15.849,5.559,15.124.484a.513.513,0,0,0-.87-.29L13.2,1.25A8.706,8.706,0,0,0,0,8.494a.513.513,0,0,0,.44.521l2.049.293a.513.513,0,0,0,.585-.515,5.639,5.639,0,0,1,7.847-5.266L9.9,4.545a.513.513,0,0,0,.29.87l5.075.725A.513.513,0,0,0,15.849,5.559Z" transform="translate(0 0)"/>
      </g>
    </g>
    <g id="Group_2587" data-name="Group 2587" transform="translate(1.624 8.229)">
      <g id="Group_2586" data-name="Group 2586">
        <path id="Path_3465" data-name="Path 3465" d="M62.952,241.057l-2.047-.292a.548.548,0,0,0-.585.552,5.639,5.639,0,0,1-7.838,5.194l.985-.985a.513.513,0,0,0-.29-.87l-5.075-.725a.514.514,0,0,0-.58.58l.725,5.075a.513.513,0,0,0,.87.29l1.081-1.081a8.719,8.719,0,0,0,13.194-7.213A.514.514,0,0,0,62.952,241.057Z" transform="translate(-47.516 -240.761)"/>
      </g>
    </g>
  </g>
</svg>
